<?xml version="1.0" ?><!-- Uploaded to: SVG Repo, www.svgrepo.com, Generator: SVG Repo Mixer Tools -->
<svg width="800px" height="800px" viewBox="0 0 64 64" xmlns="http://www.w3.org/2000/svg"><defs><style>.a{fill:none;stroke:#000000;stroke-linejoin:round;stroke-width:2px;}</style></defs><title/><path class="a" d="M15.48,34h-4a5,5,0,0,1-5-5h0a5,5,0,0,1,5-5H52.56a5,5,0,0,1,5,5h0a5,5,0,0,1-5,5H48.48"/><path class="a" d="M49,34h6v7.25A17.75,17.75,0,0,1,37.25,59H26.75A17.75,17.75,0,0,1,9,41.25V34h6"/><path class="a" d="M29,6h6A16,16,0,0,1,51,22v2a0,0,0,0,1,0,0H13a0,0,0,0,1,0,0V22A16,16,0,0,1,29,6Z"/></svg>