<?xml version="1.0" ?><!-- Uploaded to: SVG Repo, www.svgrepo.com, Generator: SVG Repo Mixer Tools -->
<svg width="800px" height="800px" viewBox="0 0 64 64" xmlns="http://www.w3.org/2000/svg"><defs><style>.a{fill:none;stroke:#000000;stroke-linejoin:round;stroke-width:2px;}</style></defs><title/><path class="a" d="M15.48,34h-4a5,5,0,0,1-5-5h0a5,5,0,0,1,5-5H52.56a5,5,0,0,1,5,5h0a5,5,0,0,1-5,5H48.48"/><path class="a" d="M49,34h6v7.25A17.75,17.75,0,0,1,37.25,59H26.75A17.75,17.75,0,0,1,9,41.25V34h6"/><rect class="a" height="4" width="29" x="31" y="4"/><polyline class="a" points="41.9 7.92 58.8 14.12 57.42 17.87 31.81 8.48"/><rect class="a" height="20" width="4" x="27" y="4"/><polyline class="a" points="35 9.88 35 24 31 24 31 8"/></svg>