<?xml version="1.0" ?><!-- Uploaded to: SVG Repo, www.svgrepo.com, Generator: SVG Repo Mixer Tools -->
<svg width="800px" height="800px" viewBox="0 0 64 64" xmlns="http://www.w3.org/2000/svg"><defs><style>.a{fill:none;stroke:#000000;stroke-linejoin:round;stroke-width:2px;}</style></defs><title/><rect class="a" height="9" width="27" x="19" y="25"/><polygon class="a" points="22 34 43 34 38 59 27 59 22 34"/><path class="a" d="M38,15h-.07l-.22-.81a3.48,3.48,0,0,0-1.63-6.13L35,4,31.63,8H28.5a3.49,3.49,0,0,0-.43,7l0,0H27a5,5,0,0,0,0,10H38a5,5,0,0,0,0-10Z"/><line class="a" x1="39.83" x2="25.81" y1="34.33" y2="52.39"/><line class="a" x1="40.76" x2="30.74" y1="45.58" y2="58.47"/><line class="a" x1="29.26" x2="23.51" y1="33.65" y2="41.05"/></svg>